<svg width="100" height="100" viewBox="0 0 100 100" fill="none" xmlns="http://www.w3.org/2000/svg">
<path d="M91.5827 2.82619C91.375 2.68453 91.1712 2.57619 90.9673 2.46369C88.4711 1.0419 85.6914 0.303748 82.8712 0.313694H82.8404C79.7554 0.318838 76.7252 1.19742 74.0502 2.86235C71.3752 4.52727 69.1483 6.9207 67.5904 9.80536L67.5443 9.89703C66.2832 12.252 65.5188 14.8801 65.3058 17.5929L65.302 17.6637H28.3789L24.2481 6.87619C23.3207 4.43437 21.6202 2.43066 19.4518 1.22484C17.2835 0.0190137 14.7894 -0.309944 12.4173 0.297027L12.4866 0.28036L0.00195312 3.35536L0.77503 7.04703L13.2596 3.97203C14.8128 3.58855 16.4411 3.81076 17.8579 4.59956C19.2747 5.38836 20.3894 6.69321 21.0058 8.28453L21.0212 8.33453L24.6058 17.6679H1.15965L40.3635 60.1387V91.2345C31.2596 91.9345 24.9789 95.2012 24.9789 99.2554V100.01H62.7635V99.2554C62.7635 95.2054 56.4712 91.922 47.3789 91.2345V60.1387L71.5443 33.9595C72.3019 34.6554 73.1481 35.3012 74.0404 35.8679L74.125 35.9179C78.1667 38.4077 82.9538 39.0635 87.4404 37.7418C91.927 36.4201 95.7484 33.2284 98.0696 28.864C100.391 24.4997 101.023 19.3175 99.8287 14.4496C98.6341 9.58173 95.7096 5.4239 91.6943 2.88453L91.6096 2.83453L91.5827 2.82619ZM95.425 17.4387L85.8327 17.4679L90.6058 8.46786C93.2125 10.6463 94.9374 13.8353 95.4173 17.3637L95.425 17.4387ZM87.5866 6.56786L82.8135 15.5929L77.9904 6.62203C79.5321 5.93339 81.1844 5.5822 82.852 5.58869C84.5558 5.58869 86.1827 5.94703 87.6712 6.60119L87.5866 6.56786ZM71.775 12.522C72.6135 10.9429 73.6827 9.61369 74.9481 8.54286L74.975 8.52203L79.7981 17.4929L70.2289 17.522C70.4443 15.6512 70.9904 13.9595 71.8058 12.4554L71.775 12.5179V12.522ZM12.9173 22.9429H26.6135L28.4981 27.8887H17.4866L12.9173 22.9429ZM70.202 27.8929H67.075V27.9179H32.2558L30.3712 22.972H74.7327L70.202 27.8929ZM78.0673 32.1679L82.8404 23.1429L87.6635 32.1137C86.2289 32.772 84.5596 33.1554 82.8096 33.1554C81.102 33.1554 79.4712 32.7929 77.9827 32.1304L78.0673 32.1637V32.1679ZM93.8789 26.2429C93.0687 27.7778 91.9926 29.129 90.7096 30.222L90.6827 30.2429L85.8596 21.272L95.4289 21.247C95.2074 23.0276 94.6706 24.7452 93.8481 26.3054L93.8827 26.2387L93.8789 26.2429Z" fill="black"/>
</svg>
