<svg width="48" height="48" viewBox="0 0 48 48" fill="none" xmlns="http://www.w3.org/2000/svg">
<path d="M43.4138 40.5859L34.3358 31.5081C36.6218 28.6121 37.9998 24.966 37.9998 21C37.9998 11.626 30.3738 4 20.9998 4C11.6258 4 3.99976 11.626 3.99976 21C3.99976 30.374 11.6258 38 20.9998 38C24.9678 38 28.6118 36.6239 31.5078 34.3359L40.5858 43.4141C40.9758 43.8041 41.4878 44 41.9998 44C42.5118 44 43.0238 43.8041 43.4138 43.4141C44.1958 42.6321 44.1958 41.3679 43.4138 40.5859ZM7.99976 21C7.99976 13.832 13.8318 8 20.9998 8C28.1678 8 33.9998 13.832 33.9998 21C33.9998 28.168 28.1678 34 20.9998 34C13.8318 34 7.99976 28.168 7.99976 21Z" fill="black"/>
</svg>
